<?xml version="1.0" encoding="UTF-8"?><svg version="1.1" xmlns="http://www.w3.org/2000/svg" width="463" height="463"><path d="M0 0 C1.02 0.25 2.05 0.49 3.1 0.75 C17.56 4.31 31.37 9.02 45 15 C45.73 15.32 46.46 15.63 47.22 15.96 C80.05 30.24 109.97 53.8 132 82 C132.79 82.97 133.58 83.94 134.39 84.95 C141.45 93.8 147.35 103.2 153 113 C153.4 113.69 153.8 114.38 154.22 115.09 C171 144.34 181.97 179.77 182.24 213.62 C182.25 214.63 182.26 215.64 182.27 216.68 C182.59 258.51 182.59 258.51 178 277 C177.76 278 177.53 278.99 177.28 280.02 C170.26 309.11 158.4 336.62 141 361 C140.27 362.02 139.54 363.05 138.79 364.1 C126.49 380.91 112.43 396.17 96 409 C95.11 409.74 94.22 410.48 93.3 411.25 C68.29 431.56 38.01 445.34 6.94 453.31 C6.05 453.54 5.17 453.77 4.26 454.01 C-13.6 458.36 -31.43 459.55 -49.75 459.44 C-50.8 459.43 -51.85 459.43 -52.94 459.43 C-68.62 459.35 -83.71 458.79 -99 455 C-100.02 454.75 -101.05 454.51 -102.1 454.25 C-116.56 450.69 -130.38 445.98 -144 440 C-144.73 439.68 -145.46 439.37 -146.22 439.04 C-179.03 424.77 -209.02 401.23 -231 373 C-231.79 372.03 -232.58 371.06 -233.39 370.06 C-240.44 361.21 -246.36 351.81 -252 342 C-252.65 340.87 -252.65 340.87 -253.31 339.73 C-264.48 320.15 -271.94 298.92 -277 277 C-277.21 276.14 -277.42 275.28 -277.64 274.4 C-284.7 244.51 -284.31 207.79 -277 178 C-276.79 177.08 -276.57 176.16 -276.35 175.21 C-264.44 124.81 -236.04 77.95 -195 46 C-194.03 45.21 -193.06 44.42 -192.06 43.61 C-183.2 36.55 -173.78 30.68 -164 25 C-163.38 24.64 -162.77 24.27 -162.14 23.9 C-142.67 12.49 -120.87 5.18 -99 0 C-98.1 -0.22 -97.19 -0.45 -96.26 -0.68 C-66.55 -7.76 -29.6 -7.39 0 0 Z M-176 47 C-177.05 47.77 -178.1 48.53 -179.18 49.32 C-186.9 55.06 -194.06 61.34 -201 68 C-201.93 68.88 -201.93 68.88 -202.87 69.77 C-235.73 101.03 -256.86 141.7 -266 186 C-266.18 186.85 -266.36 187.69 -266.54 188.56 C-277.18 241.88 -264.48 301.16 -235.14 346.52 C-230.16 353.98 -224.81 361.17 -219 368 C-218.37 368.74 -217.75 369.47 -217.11 370.23 C-214.79 372.87 -212.41 375.45 -210 378 C-209.41 378.62 -208.82 379.25 -208.21 379.89 C-198.23 390.36 -187.89 399.74 -176 408 C-175.28 408.5 -174.55 409.01 -173.81 409.53 C-137.17 434.62 -94.15 447.51 -49.88 447.31 C-49.02 447.31 -48.16 447.31 -47.28 447.31 C-34 447.25 -21.04 446.76 -8 444 C-7.04 443.8 -6.07 443.59 -5.08 443.38 C22.8 437.28 50.73 426.8 74 410 C74.64 409.55 75.27 409.09 75.93 408.63 C84.56 402.45 92.75 395.97 100.38 388.57 C101.53 387.45 102.69 386.34 103.86 385.24 C136.72 353.99 157.87 313.31 167 269 C167.18 268.15 167.36 267.3 167.54 266.42 C172.6 240.9 172.1 211.46 167 186 C166.81 185.06 166.62 184.11 166.43 183.14 C159.99 152.21 147.08 122.25 128 97 C127.54 96.38 127.07 95.75 126.59 95.11 C112.75 76.7 96.01 60.03 77 47 C76.28 46.5 75.56 46 74.83 45.49 C38.31 20.47 -4.67 7.51 -48.81 7.62 C-49.66 7.63 -50.51 7.63 -51.38 7.63 C-95.3 7.78 -140.36 20.66 -176 47 Z " fill="#4C138B" transform="translate(281,4)"/><path d="M0 0 C1.28 0 1.28 0 2.59 0 C17.07 0.05 30.98 1.06 45.12 4.38 C46.16 4.62 47.19 4.86 48.25 5.11 C63.19 8.72 77.27 13.73 91.12 20.38 C91.88 20.74 92.64 21.1 93.42 21.48 C132.83 40.72 165.04 73.59 185.12 112.38 C185.46 113.02 185.8 113.67 186.15 114.34 C198.99 139.14 207.07 167.86 207.36 195.87 C207.37 196.65 207.38 197.44 207.39 198.24 C207.98 257.33 189.14 309.38 148.12 352.38 C147.33 353.23 146.53 354.08 145.7 354.96 C113.24 388.65 62.87 412.29 15.96 413.54 C14.55 413.56 13.13 413.57 11.71 413.58 C10.55 413.59 10.55 413.59 9.37 413.6 C-50.8 414.02 -101.87 394.84 -145.88 353.38 C-147.05 352.28 -147.05 352.28 -148.25 351.17 C-162.96 337.03 -174.44 319.35 -183.88 301.38 C-184.22 300.72 -184.56 300.07 -184.92 299.39 C-197.75 274.6 -205.82 245.88 -206.11 217.88 C-206.12 217.1 -206.13 216.31 -206.14 215.51 C-206.73 156.21 -187.73 104.6 -146.88 61.38 C-146.07 60.52 -145.27 59.66 -144.44 58.78 C-137.8 51.9 -130.53 46.06 -122.88 40.38 C-122.33 39.97 -121.79 39.57 -121.24 39.16 C-112.55 32.78 -103.41 27.38 -93.88 22.38 C-93.22 22.03 -92.57 21.69 -91.89 21.33 C-73.79 11.97 -53.99 5.6 -33.88 2.38 C-32.81 2.2 -31.74 2.02 -30.64 1.84 C-20.4 0.31 -10.34 -0.03 0 0 Z M-127.88 60.38 C-128.46 60.88 -129.04 61.38 -129.65 61.9 C-163.14 91.01 -184.35 131.89 -191.88 175.38 C-191.99 176.05 -192.11 176.72 -192.23 177.41 C-200.46 226.38 -187.33 278.95 -158.88 319.38 C-149.5 331.97 -139.07 344.44 -126.88 354.38 C-125.81 355.28 -124.74 356.18 -123.68 357.08 C-83.36 390.73 -31.69 405.27 20.36 400.91 C60.88 396.83 98.45 379.9 129.12 353.38 C129.71 352.87 130.29 352.37 130.9 351.85 C167.11 320.37 190.86 273.26 194.84 225.38 C198.42 169.75 182.08 118.48 145.45 76.46 C138.56 68.64 131.39 61.77 123.12 55.38 C122 54.42 122 54.42 120.85 53.44 C49.91 -6.61 -59.62 1.36 -127.88 60.38 Z " fill="#4C138B" transform="translate(230.875,24.625)"/><path d="M0 0 C4.62 0 9.24 0 14 0 C14 9.24 14 18.48 14 28 C16.97 28 19.94 28 23 28 C26.42 28.44 29.72 29.24 33.06 30.06 C33.97 30.28 34.89 30.5 35.83 30.73 C48.15 33.88 59.36 39.02 70 46 C69.52 51.57 68.7 56.67 67 62 C62.91 60.51 59.4 58.5 55.69 56.25 C42.34 48.48 29.59 45.6 14 43 C14 69.07 14 95.14 14 122 C16.31 122.33 18.62 122.66 21 123 C39.13 127.85 58.02 136.15 68.57 152.38 C75.69 165.39 77.45 181.57 73.44 195.88 C68.34 210.16 58.59 220.41 45 227 C34.71 231.26 25.04 232.93 14 234 C14 243.24 14 252.48 14 262 C9.38 262 4.76 262 0 262 C0 252.76 0 243.52 0 234 C-3.3 234 -6.6 234 -10 234 C-30.58 231.88 -48.95 224.64 -66 213 C-64.98 207.53 -63.93 202.24 -62 197 C-61.38 197.34 -60.76 197.68 -60.12 198.03 C-58.21 199.08 -56.3 200.12 -54.38 201.15 C-52.07 202.42 -49.78 203.69 -47.49 205 C-32.11 213.69 -18.02 216.3 0 219 C0 191.61 0 164.22 0 136 C-2.64 135.67 -5.28 135.34 -8 135 C-23.15 131.29 -41.54 124.04 -51 111 C-59.29 97.05 -62.84 82.22 -58.81 66.12 C-54.21 51.74 -46.47 42.97 -33.4 35.52 C-28.08 32.91 -22.6 31.19 -16.88 29.69 C-16.23 29.52 -15.59 29.34 -14.92 29.17 C-9.63 27.88 -5.74 28 0 28 C0 18.76 0 9.52 0 0 Z M-34.94 55.31 C-41.78 62.71 -43.39 71.91 -43.27 81.67 C-42.57 90.22 -40.15 98.12 -34.04 104.3 C-24.15 112.57 -12.46 116.51 0 119 C0 93.92 0 68.84 0 43 C-13.12 43 -25.09 46.3 -34.94 55.31 Z M14 139 C14 165.07 14 191.14 14 218 C25.66 218 37.34 214.67 46.39 206.96 C53.23 199.78 57.13 190.98 57 181 C56.21 169.76 53.28 160.64 45.14 152.67 C38.94 147.83 32.51 144.78 25.12 142.19 C23.84 141.72 23.84 141.72 22.54 141.24 C18.37 139.61 18.37 139.61 14 139 Z " fill="#4F1195" transform="translate(227,103)"/></svg>
