<?xml version="1.0" encoding="UTF-8"?><svg version="1.1" xmlns="http://www.w3.org/2000/svg" width="463" height="463"><path d="M0 0 C1.19 -0.01 2.38 -0.02 3.6 -0.03 C4.91 -0.02 6.22 -0.01 7.57 -0.01 C8.97 -0.01 10.38 -0.02 11.78 -0.02 C15.64 -0.04 19.5 -0.03 23.36 -0.03 C27.52 -0.02 31.68 -0.03 35.84 -0.04 C44 -0.06 52.15 -0.06 60.31 -0.06 C66.93 -0.05 73.56 -0.05 80.19 -0.06 C81.61 -0.06 81.61 -0.06 83.05 -0.06 C84.97 -0.06 86.88 -0.07 88.8 -0.07 C106.78 -0.08 124.75 -0.08 142.73 -0.06 C159.17 -0.05 175.61 -0.07 192.05 -0.09 C208.93 -0.12 225.81 -0.12 242.69 -0.12 C252.17 -0.11 261.65 -0.12 271.12 -0.13 C279.19 -0.15 287.27 -0.15 295.34 -0.13 C299.45 -0.12 303.57 -0.12 307.69 -0.14 C311.46 -0.15 315.23 -0.15 319.01 -0.13 C321.01 -0.12 323.01 -0.14 325.01 -0.15 C334.1 -0.08 341.72 1.3 348.9 7.15 C353.96 12.74 356.41 20.17 359.21 27.07 C359.86 28.63 360.51 30.18 361.16 31.74 C362.52 34.99 363.86 38.24 365.2 41.49 C367.13 46.2 369.09 50.9 371.06 55.6 C373.56 61.58 376.05 67.56 378.54 73.55 C381.01 79.51 383.5 85.48 386.01 91.43 C386.31 92.15 386.62 92.88 386.93 93.62 C388.1 96.41 389.27 99.19 390.44 101.97 C391.22 103.83 392.01 105.7 392.8 107.57 C393.24 108.63 393.68 109.68 394.14 110.77 C394.9 112.61 395.58 114.49 396.21 116.38 C397.53 117.07 398.87 117.73 400.21 118.38 C402.47 120.08 404.69 121.8 406.9 123.57 C411.58 127.32 416.29 130.96 421.25 134.36 C428.21 141.52 428.94 148.87 428.8 158.52 C428.8 159.76 428.8 160.99 428.8 162.27 C428.8 164.87 428.78 167.48 428.75 170.08 C428.72 172.75 428.71 175.41 428.71 178.07 C428.72 181.93 428.7 185.78 428.68 189.64 C428.68 190.83 428.68 192.02 428.68 193.24 C428.6 199.02 428.51 203.42 425.21 208.38 C424.67 209.23 424.14 210.07 423.59 210.94 C417.9 216.78 411.29 219.26 403.25 219.49 C401.71 219.49 400.17 219.49 398.63 219.48 C397.41 219.48 397.41 219.48 396.16 219.47 C393.57 219.47 390.99 219.46 388.4 219.44 C386.64 219.44 384.88 219.43 383.12 219.43 C378.82 219.42 374.51 219.4 370.21 219.38 C370.07 220.47 369.93 221.57 369.78 222.69 C368.23 232.75 362.16 241.25 354.21 247.38 C342.62 254.48 331.57 257.15 318.21 254.26 C307.48 251.3 298.27 245.02 292.42 235.45 C289.43 229.76 288.14 225.92 287.21 219.38 C252.56 219.38 217.91 219.38 182.21 219.38 C181.88 221.69 181.55 224 181.21 226.38 C177.16 237.45 170.59 245.36 160.15 250.82 C148.25 256.24 137.75 256.85 125.29 252.64 C114.32 248.15 107.06 240.52 101.37 230.32 C99.91 226.63 99.65 223.32 99.21 219.38 C98.27 219.39 97.34 219.39 96.37 219.4 C87.53 219.46 78.69 219.51 69.85 219.54 C65.3 219.55 60.75 219.57 56.21 219.61 C51.82 219.64 47.43 219.66 43.04 219.66 C41.37 219.67 39.7 219.68 38.03 219.7 C35.68 219.72 33.33 219.72 30.98 219.72 C30.3 219.73 29.61 219.74 28.9 219.75 C23.9 219.72 20.58 218.64 16.21 216.38 C10.88 210.77 11 205.9 10.96 198.57 C10.94 197.68 10.92 196.79 10.9 195.87 C10.87 190.6 11.24 186.93 14.21 182.38 C18.39 178.41 21.66 177.24 27.32 177.28 C28.07 177.29 28.83 177.29 29.6 177.29 C30.38 177.3 31.16 177.31 31.96 177.32 C32.75 177.32 33.55 177.33 34.36 177.33 C36.31 177.34 38.26 177.36 40.21 177.38 C40.2 176.14 40.2 174.89 40.19 173.61 C40.13 161.9 40.08 150.19 40.05 138.47 C40.04 132.45 40.02 126.43 39.98 120.41 C39.95 114.6 39.93 108.79 39.93 102.98 C39.92 100.76 39.91 98.54 39.89 96.32 C39.87 93.22 39.87 90.12 39.87 87.01 C39.86 86.09 39.85 85.17 39.84 84.22 C39.87 78.06 39.87 78.06 41.51 74.81 C43.21 73.38 43.21 73.38 46.71 72.82 C50.21 73.38 50.21 73.38 51.91 75.57 C53.32 78.62 53.58 80.51 53.57 83.84 C53.58 84.92 53.58 86.01 53.58 87.13 C53.57 88.3 53.56 89.48 53.55 90.7 C53.55 92.57 53.55 92.57 53.55 94.48 C53.55 97.9 53.54 101.32 53.51 104.73 C53.5 108.31 53.49 111.88 53.49 115.46 C53.48 122.22 53.46 128.99 53.43 135.75 C53.39 143.45 53.38 151.15 53.36 158.86 C53.33 174.7 53.27 190.54 53.21 206.38 C68.39 206.38 83.57 206.38 99.21 206.38 C99.71 202.42 99.71 202.42 100.21 198.38 C103.76 188.03 111.06 179.83 120.58 174.6 C132.39 169.13 143.92 168.95 156.17 173.12 C160.68 174.99 164.43 177.31 168.21 180.38 C168.84 180.88 169.46 181.38 170.1 181.9 C177.42 188.45 180.85 196.83 182.21 206.38 C216.86 206.38 251.51 206.38 287.21 206.38 C287.54 203.74 287.87 201.1 288.21 198.38 C291.74 188.08 299.04 179.82 308.51 174.6 C320.39 169.24 331.89 168.99 344.13 173.12 C348.66 174.98 352.42 177.3 356.21 180.38 C356.84 180.88 357.46 181.38 358.1 181.9 C365.35 188.39 368.98 196.89 370.21 206.38 C375.67 206.34 381.14 206.27 386.6 206.17 C388.46 206.14 390.31 206.12 392.17 206.11 C394.84 206.09 397.52 206.04 400.19 205.99 C401.02 205.99 401.85 205.99 402.7 205.99 C407.78 205.86 410.54 205.22 414.21 201.38 C415.43 198.94 415.36 197.3 415.4 194.57 C415.42 193.57 415.44 192.56 415.45 191.53 C415.5 186.94 415.54 182.36 415.56 177.77 C415.58 175.35 415.6 172.93 415.64 170.51 C415.7 167.03 415.72 163.54 415.73 160.05 C415.77 158.43 415.77 158.43 415.8 156.78 C415.84 150.36 415.84 150.36 412.92 144.84 C409.75 141.95 409.75 141.95 406.4 139.31 C405.71 138.81 405.03 138.3 404.33 137.78 C403.63 137.28 402.93 136.77 402.21 136.26 C400.81 135.23 399.42 134.21 398.02 133.19 C397.41 132.74 396.8 132.3 396.17 131.84 C394.21 130.38 394.21 130.38 392.24 128.32 C387.8 125.48 383.89 125.85 378.72 125.91 C377.13 125.91 377.13 125.91 375.52 125.91 C373.23 125.9 370.94 125.91 368.65 125.93 C365.03 125.95 361.4 125.94 357.78 125.93 C348.78 125.91 339.79 125.93 330.79 125.95 C323.19 125.98 315.58 125.98 307.98 125.95 C304.41 125.95 300.84 125.97 297.27 126 C295.08 125.99 292.89 125.98 290.7 125.98 C289.21 126 289.21 126 287.69 126.02 C283.19 125.97 280.88 125.84 277.09 123.25 C274.85 119.83 274.58 117.97 274.58 113.91 C274.57 112.62 274.55 111.33 274.54 110.01 C274.55 108.61 274.57 107.21 274.58 105.81 C274.58 104.37 274.58 102.93 274.57 101.49 C274.57 98.48 274.59 95.47 274.61 92.45 C274.65 88.59 274.64 84.73 274.62 80.87 C274.61 77.9 274.62 74.93 274.64 71.96 C274.64 70.53 274.64 69.11 274.63 67.69 C274.63 65.7 274.65 63.71 274.68 61.72 C274.69 60.03 274.69 60.03 274.7 58.3 C275.21 55.38 275.21 55.38 276.78 53.02 C280.01 50.84 282.78 50.81 286.55 50.83 C287.28 50.82 288.01 50.81 288.77 50.8 C291.18 50.77 293.59 50.77 296.01 50.77 C297.68 50.76 299.36 50.74 301.03 50.72 C305.44 50.68 309.85 50.66 314.25 50.64 C318.75 50.62 323.25 50.58 327.75 50.54 C336.57 50.47 345.39 50.41 354.21 50.38 C352.3 45.73 350.38 41.08 348.45 36.45 C347.79 34.87 347.14 33.29 346.49 31.71 C345.56 29.43 344.61 27.16 343.66 24.89 C343.38 24.19 343.09 23.48 342.8 22.75 C341.19 18.96 339.93 16.32 336.21 14.38 C332.84 13.57 329.71 13.25 326.25 13.24 C325.28 13.24 324.3 13.23 323.29 13.23 C321.69 13.22 321.69 13.22 320.05 13.22 C318.92 13.22 317.78 13.21 316.6 13.21 C312.78 13.19 308.95 13.18 305.12 13.17 C302.38 13.17 299.64 13.16 296.9 13.14 C291 13.12 285.1 13.11 279.2 13.09 C270.66 13.07 262.13 13.04 253.6 13.01 C239.75 12.96 225.9 12.92 212.06 12.88 C198.61 12.84 185.16 12.8 171.71 12.75 C170.47 12.75 170.47 12.75 169.2 12.74 C165.04 12.73 160.88 12.72 156.72 12.7 C122.22 12.59 87.71 12.48 53.21 12.38 C53.21 12.95 53.22 13.52 53.22 14.1 C53.27 20 53.3 25.91 53.32 31.81 C53.33 34.02 53.34 36.22 53.36 38.43 C53.39 41.59 53.4 44.76 53.41 47.93 C53.42 48.91 53.43 49.9 53.44 50.91 C53.44 52.29 53.44 52.29 53.44 53.7 C53.44 54.51 53.45 55.32 53.45 56.15 C53.18 58.66 52.55 60.25 51.21 62.38 C46.75 64.61 40.67 63.61 35.77 63.63 C34.52 63.65 33.27 63.67 31.97 63.69 C30.77 63.7 29.57 63.7 28.34 63.71 C26.69 63.72 26.69 63.72 25 63.74 C22.21 63.38 22.21 63.38 20.35 62.05 C18.57 59.45 18.83 57.44 19.21 54.38 C20.2 53.39 21.19 52.4 22.21 51.38 C28.15 51.38 34.09 51.38 40.21 51.38 C40.21 38.51 40.21 25.64 40.21 12.38 C35.05 12.42 35.05 12.42 29.78 12.45 C26.46 12.47 23.14 12.48 19.81 12.49 C17.5 12.5 15.18 12.51 12.87 12.53 C9.55 12.56 6.23 12.57 2.91 12.58 C1.87 12.59 0.83 12.6 -0.24 12.61 C-1.21 12.61 -2.17 12.61 -3.16 12.61 C-4 12.61 -4.85 12.62 -5.73 12.62 C-7.79 12.38 -7.79 12.38 -9.79 10.38 C-10.16 6.94 -10.16 6.94 -9.79 3.38 C-6.73 0.25 -4.27 0 0 0 Z M288.21 63.38 C288.21 79.55 288.21 95.72 288.21 112.38 C310.32 112.38 332.43 112.38 355.21 112.38 C355.21 96.21 355.21 80.04 355.21 63.38 C333.1 63.38 310.99 63.38 288.21 63.38 Z M367.21 81.38 C367.21 91.61 367.21 101.84 367.21 112.38 C371.5 112.38 375.79 112.38 380.21 112.38 C379.37 108.2 378.37 105.08 376.71 101.2 C376.21 100.05 375.72 98.89 375.21 97.7 C374.7 96.5 374.18 95.3 373.65 94.07 C373.12 92.84 372.6 91.61 372.07 90.38 C370.79 87.38 369.5 84.38 368.21 81.38 C367.88 81.38 367.55 81.38 367.21 81.38 Z M119.21 190.38 C113.19 197.44 110.13 205.1 110.21 214.38 C111.45 223.81 114.79 230.08 121.52 236.63 C130.24 242.31 137.75 243.49 148.21 242.38 C151.6 241.51 154.28 240.28 157.21 238.38 C157.83 237.99 158.46 237.6 159.1 237.2 C165.81 232.28 169.51 224.79 170.79 216.69 C171.22 206.88 168.97 199 162.57 191.45 C150.15 179.81 132.23 179.78 119.21 190.38 Z M307.26 191.24 C300.27 198.79 298.37 206.09 298.73 216.29 C299.37 223.91 302.97 230.67 308.52 235.88 C310.31 237.22 310.31 237.22 312.21 238.38 C312.84 238.79 313.48 239.2 314.13 239.62 C321.59 243.68 330.81 243.76 338.93 241.69 C341.2 240.76 343.15 239.71 345.21 238.38 C345.83 237.99 346.46 237.6 347.1 237.2 C353.61 232.42 357.83 224.15 359.21 216.26 C359.21 206.97 356.93 198.67 350.64 191.63 C338.06 179.97 319.81 179.25 307.26 191.24 Z M24.21 190.38 C24.21 195.66 24.21 200.94 24.21 206.38 C29.49 206.38 34.77 206.38 40.21 206.38 C40.21 201.1 40.21 195.82 40.21 190.38 C34.93 190.38 29.65 190.38 24.21 190.38 Z " fill="#4C138A" transform="translate(34.78978157043457,103.61968326568604)"/><path d="M0 0 C10.23 0 20.46 0 31 0 C31 4.29 31 8.58 31 13 C25.72 13 20.44 13 15 13 C15 14.65 15 16.3 15 18 C19.95 18 24.9 18 30 18 C30.33 18.99 30.66 19.98 31 21 C31.76 20.36 32.53 19.72 33.31 19.06 C37.8 16.09 42.72 15.8 48 16 C53.69 17.3 57.96 20.96 62 25 C62.56 24.24 63.11 23.47 63.69 22.69 C66.76 19.11 68.8 17.21 73.62 16.75 C78.61 16.64 81.44 16.72 86 19 C86 12.73 86 6.46 86 0 C99.86 0 113.72 0 128 0 C128 4.95 128 9.9 128 15 C123.05 15 118.1 15 113 15 C113 15.66 113 16.32 113 17 C113.91 16.97 114.83 16.95 115.77 16.92 C119.17 16.84 122.57 16.77 125.97 16.73 C127.44 16.7 128.91 16.67 130.38 16.62 C132.5 16.56 134.61 16.53 136.73 16.51 C138 16.49 139.28 16.46 140.59 16.43 C144.85 17.14 146.29 18.73 149 22 C151.19 21.02 152.78 20.25 154.39 18.44 C156.41 16.64 157.34 16.65 160.01 16.71 C160.77 16.72 161.53 16.73 162.31 16.74 C163.09 16.76 163.88 16.79 164.69 16.81 C165.88 16.83 165.88 16.83 167.1 16.85 C169.07 16.89 171.03 16.94 173 17 C171.6 20.11 169.93 22.37 167.62 24.88 C164.71 28.05 162.34 31.38 160 35 C160.39 35.41 160.79 35.83 161.19 36.25 C162.97 38.12 164.73 40 166.5 41.88 C167.12 42.53 167.74 43.18 168.38 43.85 C168.97 44.47 169.55 45.1 170.16 45.74 C170.7 46.32 171.25 46.89 171.81 47.49 C173 49 173 49 173 51 C169.94 51.14 166.88 51.23 163.81 51.31 C162.95 51.35 162.08 51.4 161.19 51.44 C154.85 51.56 154.85 51.56 152.27 49.86 C150.89 48.48 150.89 48.48 149 46 C148.45 46.81 147.89 47.63 147.32 48.47 C143.68 52.07 139.5 51.57 134.64 51.57 C133.41 51.54 132.17 51.51 130.89 51.49 C129.62 51.48 128.34 51.47 127.03 51.47 C123.65 51.44 120.27 51.4 116.89 51.34 C113.44 51.29 109.99 51.27 106.55 51.24 C100.5 51.19 94.46 51.12 88.41 51.03 C85.13 50.88 85.13 50.88 82.15 52.01 C78.44 53.72 74.88 52.94 71 52 C66.97 49.83 64.63 47.67 62 44 C61.48 44.48 60.96 44.96 60.43 45.46 C54.53 50.8 50.44 53.52 42.34 53.32 C37.1 52.61 33.23 50.3 29.62 46.5 C25.82 40.65 25.82 36.97 26 30 C22.37 30 18.74 30 15 30 C15 36.93 15 43.86 15 51 C10.05 51 5.1 51 0 51 C0 34.17 0 17.34 0 0 Z M100 4 C100 18.19 100 32.38 100 47 C107.92 47 115.84 47 124 47 C124 45.02 124 43.04 124 41 C119.05 41 114.1 41 109 41 C109 36.38 109 31.76 109 27 C113.95 27 118.9 27 124 27 C124 25.02 124 23.04 124 21 C119.05 21 114.1 21 109 21 C109 17.7 109 14.4 109 11 C113.95 11 118.9 11 124 11 C124 8.69 124 6.38 124 4 C116.08 4 108.16 4 100 4 Z M134 21 C138.61 27.34 138.61 27.34 144 33 C142.57 36.21 140.8 38.54 138.44 41.12 C135.92 43.86 135.92 43.86 134 47 C137.08 47.36 139.94 47.53 143 47 C145.14 45.22 146.37 43.3 148 41 C148.99 41 149.98 41 151 41 C151.7 41.99 152.4 42.98 153.12 44 C154.82 46.22 155.52 46.92 158.32 47.4 C160.58 47.38 162.76 47.26 165 47 C160.39 40.66 160.39 40.66 155 35 C156.51 31.53 158.57 29.09 161.12 26.31 C163.71 23.98 163.71 23.98 165 21 C160.95 20.51 160.95 20.51 157 21 C154.56 23.04 152.77 25.37 151 28 C148.08 26.71 147.1 26.16 145.31 23.38 C143.28 20.81 143.28 20.81 140.75 20.68 C138.48 20.69 136.26 20.78 134 21 Z M128 22 C128 25.3 128 28.6 128 32 C123.05 32 118.1 32 113 32 C113 33.65 113 35.3 113 37 C117.95 37 122.9 37 128 37 C128 40.3 128 43.6 128 47 C132.7 43.58 136.28 39.42 140 35 C136.44 29.91 132.95 25.77 128 22 Z M39 28 C39 28.33 39 28.66 39 29 C42.63 29 46.26 29 50 29 C48.71 27.62 47.37 26.29 46 25 C43.08 25 41.39 26.43 39 28 Z M75.25 28.06 C73.31 31.06 73.06 33.45 73 37 C74.3 40.13 74.3 40.13 77 42 C80.67 42.1 80.67 42.1 84 41 C85.16 38.67 85.2 37.15 85.25 34.56 C85.28 33.78 85.3 33 85.33 32.19 C84.92 29.48 84.16 28.63 82 27 C79.2 26.58 77.68 26.59 75.25 28.06 Z M39 38 C40.58 41.68 40.58 41.68 42 43 C46.34 42.86 46.34 42.86 50 41 C51.85 40.77 53.7 40.59 55.56 40.44 C56.57 40.35 57.59 40.27 58.63 40.18 C59.41 40.12 60.19 40.06 61 40 C60.67 39.34 60.34 38.68 60 38 C53.07 38 46.14 38 39 38 Z " fill="#4C138A" transform="translate(101,135)"/><path d="M0 0 C5.54 4.35 8.56 9.9 10.01 16.75 C10.59 24.16 8.94 30.69 4.32 36.56 C-0.61 41.87 -7.04 44.44 -14.18 45 C-21.37 44.52 -27.17 42.44 -32.48 37.49 C-37.31 31.89 -39.34 25.22 -39.2 17.89 C-38.52 10.97 -35.17 5.31 -29.99 0.75 C-20.44 -5.33 -9.81 -6.19 0 0 Z M-23.05 11.12 C-25.98 15.08 -26.38 17.57 -26.35 22.42 C-25.74 26.34 -23.82 28.05 -20.99 30.75 C-17.5 32.49 -13.79 32.33 -9.99 31.75 C-6.91 30.04 -4.58 27.93 -2.99 24.75 C-2.46 20.95 -2.14 17.28 -4.04 13.86 C-6.46 10.91 -8.36 8.95 -12.2 8.47 C-18.06 8.21 -18.06 8.21 -23.05 11.12 Z " fill="#4C138B" transform="translate(377.98828125,296.25390625)"/><path d="M0 0 C5.75 4.5 8.75 9.84 10.23 16.9 C10.88 23.88 9.29 30.64 4.92 36.21 C-0.72 41.86 -6.18 44.47 -14.14 45.21 C-22.13 44.52 -28.37 41.93 -33.77 35.9 C-38.25 29.6 -39.58 23.5 -38.77 15.9 C-36.94 8.27 -33.39 3.11 -26.77 -1.1 C-17.87 -5.38 -8.49 -5.3 0 0 Z M-24.77 13.9 C-25.1 14.23 -25.43 14.56 -25.77 14.9 C-26.3 18.98 -26.7 23.15 -24.72 26.86 C-22.41 29.64 -20.45 31.66 -16.81 32.17 C-12.52 32.36 -9.67 32.33 -6.27 29.52 C-2.63 25.71 -2.37 23.34 -2.41 18.23 C-3.01 14.31 -4.93 12.59 -7.77 9.9 C-14.2 6.68 -20.56 8.33 -24.77 13.9 Z " fill="#4C138B" transform="translate(189.765625,296.1015625)"/><path d="M0 0 C0.81 -0.01 1.62 -0.03 2.45 -0.04 C3.32 -0.04 4.19 -0.04 5.08 -0.05 C6.42 -0.06 6.42 -0.06 7.8 -0.07 C9.69 -0.08 11.59 -0.08 13.48 -0.08 C16.38 -0.08 19.28 -0.12 22.18 -0.16 C24.02 -0.16 25.86 -0.17 27.71 -0.17 C28.57 -0.18 29.44 -0.2 30.33 -0.21 C36.31 -0.17 36.31 -0.17 39.54 2.12 C40.96 4.29 40.96 4.29 40.9 7.42 C39.96 10.29 39.96 10.29 36.96 12.29 C35.06 12.54 35.06 12.54 32.9 12.55 C32.09 12.56 31.28 12.56 30.45 12.57 C29.14 12.56 29.14 12.56 27.8 12.56 C26.9 12.56 26.01 12.56 25.08 12.56 C23.18 12.56 21.28 12.56 19.38 12.55 C16.47 12.54 13.56 12.55 10.65 12.56 C8.81 12.56 6.96 12.56 5.12 12.56 C4.24 12.56 3.37 12.56 2.47 12.57 C1.26 12.56 1.26 12.56 0.02 12.55 C-0.7 12.55 -1.41 12.55 -2.14 12.54 C-4.04 12.29 -4.04 12.29 -7.04 10.29 C-7.44 8.42 -7.44 8.42 -7.42 6.29 C-7.42 5.59 -7.43 4.89 -7.44 4.17 C-6.61 0.27 -3.38 0.04 0 0 Z " fill="#4C138A" transform="translate(7.040771484375,154.70947265625)"/><path d="M0 0 C2 3 2 3 1.81 6.56 C1 10 1 10 -2 12 C-5.09 12.32 -7.14 12.49 -9.88 10.94 C-11.66 7.86 -11.43 5.47 -11 2 C-7.89 -1.98 -4.56 -1.18 0 0 Z M-9 4 C-8 7 -8 7 -8 7 Z M-2 5 C-1 8 -1 8 -1 8 Z M-5 7 C-4 10 -4 10 -4 10 Z " fill="#4B1389" transform="translate(290,175)"/></svg>
