<?xml version="1.0" encoding="UTF-8"?><svg version="1.1" xmlns="http://www.w3.org/2000/svg" width="463" height="463"><path d="M0 0 C1.06 -0.01 2.13 -0.02 3.22 -0.02 C5.48 -0.04 7.73 -0.05 9.98 -0.06 C12.24 -0.07 14.49 -0.09 16.75 -0.12 C57.35 -0.65 98.67 9.01 129.91 36.24 C130.61 36.82 131.31 37.4 132.04 38 C150.74 53.76 162.82 76.14 169.91 99.24 C170.29 100.47 170.66 101.7 171.05 102.97 C184.36 149.58 180.48 201.96 157.03 244.61 C150.85 255.52 143.79 265.6 135.21 274.76 C133.32 276.79 131.51 278.85 129.71 280.94 C126.21 284.94 122.55 288.73 118.78 292.48 C118.1 293.15 117.43 293.83 116.74 294.52 C114.54 296.72 112.33 298.92 110.13 301.11 C108.59 302.65 107.05 304.18 105.52 305.72 C101.49 309.74 97.47 313.76 93.44 317.77 C89.32 321.88 85.21 325.99 81.09 330.1 C73.03 338.15 64.97 346.2 56.91 354.24 C57.98 354.37 59.05 354.51 60.15 354.65 C64.21 355.17 68.26 355.69 72.31 356.21 C74.05 356.44 75.79 356.66 77.53 356.88 C154.35 366.64 154.35 366.64 173.76 391.54 C177.82 397.55 178.85 403.15 177.91 410.24 C174.88 421.57 165.63 429.45 155.91 435.24 C132.88 448.28 107.58 454.59 81.66 458.99 C80.49 459.19 79.32 459.39 78.11 459.59 C74.38 460.19 70.65 460.73 66.91 461.24 C66.22 461.33 65.53 461.43 64.83 461.52 C49.65 463.53 34.44 463.58 19.16 463.55 C16.34 463.55 13.52 463.56 10.69 463.57 C-13.72 463.73 -37.86 462.37 -61.84 457.49 C-63.13 457.23 -64.41 456.97 -65.73 456.71 C-91.83 451.38 -128.62 443.27 -144.79 419.77 C-148.48 413.25 -150 407.74 -149.09 400.24 C-145.63 388.99 -136.53 382.46 -126.62 376.96 C-108.2 367.99 -87.87 363.06 -67.78 359.55 C-66.15 359.27 -66.15 359.27 -64.48 358.97 C-56.38 357.63 -48.25 356.63 -40.09 355.66 C-38.94 355.53 -37.78 355.39 -36.59 355.25 C-33.76 354.91 -30.93 354.57 -28.09 354.24 C-29.03 353.31 -29.96 352.38 -30.92 351.43 C-39.74 342.65 -48.55 333.87 -57.35 325.08 C-61.88 320.56 -66.41 316.05 -70.94 311.54 C-75.33 307.18 -79.7 302.82 -84.07 298.45 C-85.74 296.79 -87.4 295.13 -89.07 293.48 C-97.53 285.06 -105.85 276.75 -113.09 267.24 C-113.57 266.63 -114.05 266.02 -114.54 265.39 C-144.38 226.59 -153.52 178.85 -147.84 130.86 C-143.67 98.98 -132.78 68.6 -110.09 45.24 C-109.24 44.3 -108.38 43.35 -107.5 42.38 C-80.96 13.76 -38.24 0.28 0 0 Z M-97.09 49.24 C-97.83 49.89 -98.57 50.55 -99.33 51.22 C-128.14 78.2 -135.49 119.63 -137.28 157.17 C-138.08 199.44 -122.32 240.16 -93.52 271 C-90.69 273.88 -87.84 276.74 -84.97 279.58 C-83.89 280.67 -82.8 281.76 -81.72 282.84 C-78.81 285.75 -75.89 288.66 -72.97 291.57 C-69.91 294.62 -66.85 297.67 -63.79 300.73 C-58.02 306.5 -52.24 312.26 -46.45 318.02 C-39.86 324.59 -33.28 331.16 -26.7 337.74 C-13.17 351.24 0.37 364.74 13.91 378.24 C20.05 373.15 25.69 367.62 31.33 361.99 C32.37 360.96 33.4 359.93 34.44 358.9 C37.82 355.54 41.2 352.17 44.57 348.81 C45.74 347.64 46.92 346.48 48.09 345.31 C53.59 339.82 59.1 334.33 64.6 328.84 C70.91 322.54 77.23 316.25 83.55 309.96 C88.47 305.08 93.37 300.18 98.28 295.29 C101.19 292.37 104.11 289.46 107.04 286.56 C128.45 265.41 128.45 265.41 145.16 240.49 C145.55 239.75 145.95 239.02 146.36 238.26 C168.59 196.16 171.38 146.64 157.63 101.34 C152.12 84.13 143.92 68.76 131.91 55.24 C131.06 54.28 130.2 53.31 129.33 52.32 C111.6 33.5 86.77 22.26 61.91 16.49 C61.05 16.29 60.2 16.09 59.32 15.89 C44.49 12.64 29.9 11.86 14.78 11.93 C13.88 11.93 12.98 11.93 12.05 11.93 C-28.15 12.09 -66.83 21.62 -97.09 49.24 Z M-132.28 395.74 C-135.2 399 -136.62 401.81 -137.09 406.24 C-134.8 415.26 -127.52 420.62 -119.84 425.24 C-96.27 438.36 -69.52 444.16 -43.09 448.24 C-41.49 448.49 -41.49 448.49 -39.85 448.74 C19.11 457.4 102.19 456.7 153.57 422.03 C158.99 417.88 163.76 413.87 165.91 407.24 C166.03 401.89 163.54 398.91 160.04 395.18 C136.88 374.03 92.67 370.08 63.08 367.57 C59.91 367.24 59.91 367.24 56.07 366.5 C48.92 365.27 48.92 365.27 42.11 367.21 C37.79 370.44 34.34 374.53 30.84 378.61 C29.25 380.41 27.65 382.19 26.03 383.95 C25.03 385.05 24.06 386.16 23.1 387.29 C20.6 390.1 18.95 391.23 15.3 392.26 C11.57 392.24 10.66 391.99 8.08 389.42 C7.41 388.77 6.75 388.12 6.06 387.46 C5.35 386.72 4.64 385.99 3.91 385.24 C3.13 384.46 2.34 383.68 1.54 382.88 C-1.82 379.5 -5.15 376.08 -8.47 372.65 C-9.28 371.82 -10.09 371 -10.93 370.15 C-12.02 369.02 -12.02 369.02 -13.14 367.87 C-31.93 352.19 -115.59 380.42 -132.28 395.74 Z " fill="#4C138B" transform="translate(217.09375,-0.23828125)"/><path d="M0 0 C12.33 10.36 20.49 22.82 23 39 C23.97 57.08 20.86 72.25 8.62 86.38 C-3.7 99.24 -17.6 105.95 -35.56 106.38 C-51.23 105.97 -65.52 100.27 -76.82 89.32 C-88.76 76.62 -94.54 62.75 -94.35 45.29 C-93.83 29.2 -87.38 16.22 -76 5 C-75.36 4.35 -74.72 3.7 -74.07 3.04 C-54.3 -15.74 -21.4 -15.96 0 0 Z M-72 18 C-79.39 27.89 -83.04 39.67 -82 52 C-79.71 65.34 -74.29 76.7 -63.36 85.01 C-52.21 92.45 -40.14 95.66 -26.69 93.31 C-13.85 90.15 -2.59 83 4.44 71.69 C11.17 59.19 12.5 46.99 9.11 33.35 C5.09 21.18 -2.46 12.55 -13.44 6.29 C-34.27 -4.18 -56.4 1.31 -72 18 Z " fill="#4C138B" transform="translate(267,119)"/></svg>
